<svg xmlns="http://www.w3.org/2000/svg" width="18.155" height="15.937" viewBox="0 0 18.155 15.937">
  <path id="Path_12515" data-name="Path 12515" d="M271.456,137.474h17.411a.372.372,0,0,0,.372-.372V121.909a.372.372,0,0,0-.372-.372h-17.41a.372.372,0,0,0-.372.372V137.1a.372.372,0,0,0,.372.372Zm.372-.744v-1.264a.371.371,0,0,0,.131-.08l.092-.089c.573-.558.8-.672.877-.674a2.466,2.466,0,0,1,.513.321,4.685,4.685,0,0,0,.4.273,15.98,15.98,0,0,0,1.979,1,.4.4,0,0,0,.058,0,.372.372,0,0,0,.108-.728c-.145-.058-1.08-.509-1.768-.914-.113-.066-.223-.149-.335-.231a3.046,3.046,0,0,0-.681-.413c-.44-.175-.912.14-1.373.556v-1.879a1.86,1.86,0,0,1,.4-.415.9.9,0,0,1,.466-.011,1.679,1.679,0,0,0,.78-.035,2.262,2.262,0,0,0,1.043-1.015c.275-.419.459-.674.7-.674h0c.347,0,.661.357.994.733a3.409,3.409,0,0,0,.983.861,13.9,13.9,0,0,0,2.424.856c.042.012.089.028.137.045a1.024,1.024,0,0,0,.9.014.791.791,0,0,0,.34-.616,1.851,1.851,0,0,0-.191-.808l-.042-.113a.589.589,0,0,0,.572-.141c.215-.23.164-.582.02-1.04a4.12,4.12,0,0,0-.269-.626,2.637,2.637,0,0,1-.258-.654,8.052,8.052,0,0,1-.153-1.062c-.006-.084-.009-.157-.011-.221.04.06.085.131.136.215.445.738.838,1.547,1.217,2.328a21.883,21.883,0,0,0,1.781,3.2,4.694,4.694,0,0,0,2.225,1.606.372.372,0,1,0,.23-.708A3.952,3.952,0,0,1,284.407,133a12.579,12.579,0,0,1-.709-1.133c.128-.086.251-.179.367-.275a2.931,2.931,0,0,1,.383-.284,8.355,8.355,0,0,1,2.277,2.146,2.127,2.127,0,0,0,1.248,1.254,1.382,1.382,0,0,1,.519.342v1.684Zm8.117-8.656a8.89,8.89,0,0,0,.157,1.05,3.3,3.3,0,0,0,.321.832,3.476,3.476,0,0,1,.225.516c.022.07.039.129.052.179a1.278,1.278,0,0,0-.5-.031.372.372,0,0,0-.308.39,3.053,3.053,0,0,0,.221.792,3.052,3.052,0,0,1,.149.459.486.486,0,0,1-.01.06,1.783,1.783,0,0,1-.252-.073c-.064-.022-.126-.043-.182-.058a13.279,13.279,0,0,1-2.294-.806,2.868,2.868,0,0,1-.754-.687l-.057-.064c.065-.1.219-.145.582-.216a1.916,1.916,0,0,0,1.509-.915,14.514,14.514,0,0,1,1.144-1.426Zm8.549-5.793v11.847c-.068-.035-.136-.067-.2-.1a1.4,1.4,0,0,1-.881-.872c-.005-.013-.011-.025-.017-.037a7.52,7.52,0,0,0-2.956-2.6l-.026,0a.353.353,0,0,0-.073.02,2.406,2.406,0,0,0-.747.474c-.087.071-.17.137-.251.2-.225-.433-.441-.871-.652-1.3-.387-.8-.787-1.62-1.25-2.387-.314-.521-.664-.984-1.093-.848a.5.5,0,0,0-.276.222,15.706,15.706,0,0,0-1.926,2.259c-.189.354-.5.439-.995.535a1.705,1.705,0,0,0-.97.416,1.5,1.5,0,0,0-.959-.39h0c-.661,0-1.013.536-1.323,1.009-.213.325-.414.632-.667.721a1.107,1.107,0,0,1-.445,0,1.493,1.493,0,0,0-.9.088c-.02.01-.038.026-.057.038V122.28Z" transform="translate(-271.084 -121.537)" fill="#fff"/>
</svg>
