<svg xmlns="http://www.w3.org/2000/svg" width="29.465" height="25.337" viewBox="0 0 29.465 25.337">
  <path id="Path_12516" data-name="Path 12516" d="M157.364,89.335H136.309a.372.372,0,0,0-.372.372V90.7h-.006l-7.368,1.614a.372.372,0,0,0-.284.443l4.736,21.62a.372.372,0,0,0,.364.293.362.362,0,0,0,.08-.009l11.186-2.451h12.719a.372.372,0,0,0,.372-.372V89.707a.372.372,0,0,0-.372-.372Zm-21.426,19.108h-.006l-1.516.333-3.093-14.113,4.615-1.011Zm-2.275,5.414-4.576-20.894,6.852-1.5V92.89h-.006L130.8,94.015a.372.372,0,0,0-.284.443l3.252,14.841a.373.373,0,0,0,.364.293.359.359,0,0,0,.08-.009l1.726-.379v2.637a.372.372,0,0,0,.372.372h4.859Zm23.33-2.388H136.682V90.079h20.311Z" transform="translate(-128.271 -89.335)" fill="#fff"/>
</svg>
