<svg id="instagram-logo_1_" data-name="instagram-logo (1)" xmlns="http://www.w3.org/2000/svg" width="23.371" height="23.372" viewBox="0 0 23.371 23.372">
  <path id="Path_8" data-name="Path 8" d="M16.922,0H6.45A6.457,6.457,0,0,0,0,6.45V16.922a6.457,6.457,0,0,0,6.45,6.45H16.922a6.457,6.457,0,0,0,6.45-6.45V6.45A6.457,6.457,0,0,0,16.922,0ZM21.3,16.922A4.381,4.381,0,0,1,16.922,21.3H6.45a4.381,4.381,0,0,1-4.376-4.376V6.45A4.381,4.381,0,0,1,6.45,2.074H16.922A4.381,4.381,0,0,1,21.3,6.45V16.922Z" transform="translate(0)" fill="#fff"/>
  <path id="Path_9" data-name="Path 9" d="M46.99,40.97a6.022,6.022,0,1,0,6.022,6.022A6.029,6.029,0,0,0,46.99,40.97Zm0,9.97a3.948,3.948,0,1,1,3.949-3.948A3.953,3.953,0,0,1,46.99,50.94Z" transform="translate(-35.305 -35.306)" fill="#fff"/>
  <path id="Path_10" data-name="Path 10" d="M120.442,28.251a1.52,1.52,0,1,0,1.076.445A1.527,1.527,0,0,0,120.442,28.251Z" transform="translate(-102.481 -24.346)" fill="#fff"/>
</svg>
