<svg xmlns="http://www.w3.org/2000/svg" width="20.32" height="19.417" viewBox="0 0 20.32 19.417">
  <path id="Path_12499" data-name="Path 12499" d="M1190.9,519.71v7.513h-4.356v-7.01c0-1.76-.629-2.962-2.206-2.962a2.382,2.382,0,0,0-2.235,1.593,2.988,2.988,0,0,0-.145,1.062v7.317H1177.6s.058-11.872,0-13.1h4.357v1.857c-.009.014-.021.029-.028.043h.028v-.043a4.326,4.326,0,0,1,3.926-2.164c2.867,0,5.015,1.872,5.015,5.9Zm-17.856-11.9a2.27,2.27,0,1,0-.057,4.527h.029a2.271,2.271,0,1,0,.028-4.527Zm-2.206,19.417h4.354v-13.1h-4.354Zm0,0" transform="translate(-1170.58 -507.806)" fill="#35470B"/>
</svg>
