<svg id="Group_1210" data-name="Group 1210" xmlns="http://www.w3.org/2000/svg" width="227.428" height="55.885" viewBox="0 0 227.428 55.885">
  <g id="logo-01">
    <path id="Path_3935" data-name="Path 3935" d="M227.428,55.886H.043C.029,55.558,0,55.225,0,54.893Q0,28.049,0,1.2C0,.078.124-.027,1.26.005c.789.023,1.579.046,2.368.046q110.132,0,220.265,0c.758,0,1.515-.026,2.273-.048,1.067-.031,1.261.148,1.261,1.229q0,21.115,0,42.23C227.428,47.564,227.428,51.665,227.428,55.886ZM113.731,3.516H5.486c-1.737,0-1.9.156-1.9,1.881q0,22.537,0,45.074c0,1.74.13,1.866,1.8,1.866H222.07c.253,0,.506,0,.758-.011a.955.955,0,0,0,1.016-1.012c.019-.346.021-.694.021-1.041q0-22.4,0-44.79c0-.253,0-.505-.007-.757-.014-.8-.37-1.247-1.22-1.208-.284.013-.569,0-.853,0Z" transform="translate(0 0)" fill="#35470b"/>
    <path id="Path_3936" data-name="Path 3936" d="M64.273,52.121c0,1.577-.011,3.154,0,4.732.008.815-.286,1.26-1.176,1.154a4.926,4.926,0,0,0-.852.016.988.988,0,0,1-1.165-.947,1.442,1.442,0,0,0-.561-.956c-.183-.1-.671.221-.923.459a7.556,7.556,0,0,1-6.483,1.912,10.22,10.22,0,0,1-8.249-5.418,13.751,13.751,0,0,1-1.181-8.845c.7-4.529,3.159-7.773,7.722-8.924,4.224-1.065,8.593-.111,11.029,3.435a15.976,15.976,0,0,1,1.4,3.071c.239.587-.188.841-.673.862a26.449,26.449,0,0,1-3.027-.013,1.215,1.215,0,0,1-.89-.568,4.812,4.812,0,0,0-5-3.144,5.32,5.32,0,0,0-5.2,3.437,10.742,10.742,0,0,0,.255,9.25,5.969,5.969,0,0,0,6.345,2.882,4.782,4.782,0,0,0,4.113-3.524c.338-1.133.075-1.434-1.1-1.45-.789-.011-1.579,0-2.368,0a1.414,1.414,0,0,1-.653-.057c-1.086-.639-.486-1.695-.566-2.569-.052-.566.292-.931.938-.928q3.647.016,7.294,0c.853,0,.966.583.973,1.213.019,1.64.006,3.281.006,4.921Z" transform="translate(-24.38 -19.577)" fill="#35470b"/>
    <path id="Path_3937" data-name="Path 3937" d="M193.893,46.81c0,2.353.3,4.6,2.157,6.329,2.882,2.678,8,1.892,9.088-2.5a1.125,1.125,0,0,1,1.175-1c.916-.01,1.832,0,2.748,0,.762.006.987.4.826,1.114-1.413,6.293-6.991,8.9-12.719,7.5-5.332-1.3-7.926-5.67-8.095-10.864a13,13,0,0,1,2.17-8.081c2.282-3.282,5.574-4.461,9.456-4.3a8.964,8.964,0,0,1,7.731,4.19,14.3,14.3,0,0,1,1.212,2.944c.217.626-.1.963-.773.931a4.286,4.286,0,0,0-.852-.015,3.215,3.215,0,0,1-3.72-1.905c-1.751-3.046-6.944-2.837-9,.159A9.126,9.126,0,0,0,193.893,46.81Z" transform="translate(-106.08 -19.635)" fill="#35470b"/>
    <path id="Path_3938" data-name="Path 3938" d="M108.03,47.522q0-4.778,0-9.555c0-1.778.05-1.819,1.777-1.819,2.9,0,5.808-.015,8.712.006a6.974,6.974,0,0,1,6.5,3.467c2.54,4.357-.064,10.215-4.741,10.722-1.937.21-3.9.206-5.852.264-1.457.044-1.69.251-1.694,1.724-.005,1.8-.019,3.6,0,5.392.008.714-.244,1.042-1,1a23.31,23.31,0,0,0-2.65-.012c-.885.049-1.1-.412-1.05-1.16,0-.063,0-.126,0-.189Q108.03,52.442,108.03,47.522ZM116,39.654l-.041.208c-.7,0-1.39-.01-2.085,0s-1.14.313-1.137,1.083c0,1.61-.005,3.219,0,4.829a1.023,1.023,0,0,0,1.137,1.117c1.608-.025,3.222-.04,4.819-.205a2.85,2.85,0,0,0,2.527-2.661c.261-1.7-.233-3.1-1.573-3.6A23.21,23.21,0,0,0,116,39.654Z" transform="translate(-60.611 -20.28)" fill="#35470b"/>
    <path id="Path_3939" data-name="Path 3939" d="M355.156,58.662c-1.74,0-3.209.032-4.674-.03-.253-.011-.551-.381-.725-.651-1.208-1.879-2.381-3.78-3.581-5.663-.5-.781-.782-.79-1.483-.179a2.4,2.4,0,0,0-.907,1.982c.034,1.2-.008,2.4.005,3.595.008.674-.3.99-.968.985-.758-.005-1.517-.03-2.272.009s-1.1-.264-1.081-1.041c.028-1.071,0-2.144,0-3.217q0-8.373,0-16.747c0-1.466.1-1.556,1.552-1.558,3.035,0,2.763-.208,2.766,2.746,0,2.586-.018,5.172.012,7.758a3.76,3.76,0,0,0,.361,1.083,4.261,4.261,0,0,0,.9-.557q1.843-1.9,3.63-3.855a2.686,2.686,0,0,1,2.342-.97c.783.067,1.577-.01,2.366.01a3.584,3.584,0,0,1,.754.183,2.245,2.245,0,0,1-.324.706c-1.481,1.458-2.966,2.914-4.492,4.324a1.206,1.206,0,0,0-.168,1.816c1.806,2.694,3.588,5.4,5.371,8.113C354.73,57.781,354.859,58.093,355.156,58.662Z" transform="translate(-190.471 -20.28)" fill="#35470b"/>
    <path id="Path_3940" data-name="Path 3940" d="M250.159,57.228a7.937,7.937,0,0,1,3.934-6.675,9.129,9.129,0,0,1,5.494-.974,7.367,7.367,0,0,1,6.27,3.969,10.005,10.005,0,0,1,.677,7.542c-1.106,4.448-6.271,6.389-10.029,5.364C252.1,65.254,250.149,62.627,250.159,57.228Zm12.567,1.037a20.658,20.658,0,0,0-.355-2.485,3.977,3.977,0,0,0-3.45-3.055,3.645,3.645,0,0,0-3.993,2.516A8.613,8.613,0,0,0,254.9,60.9a3.61,3.61,0,0,0,3.691,2.692,3.765,3.765,0,0,0,3.637-2.794A16,16,0,0,0,262.726,58.265Z" transform="translate(-140.36 -27.794)" fill="#35470b"/>
    <path id="Path_3941" data-name="Path 3941" d="M436.738,53.923a5.47,5.47,0,0,0-.306.675c-.689,2.612-2.833,3.324-5.153,3.023a4.433,4.433,0,0,1-3.827-4.284c-.165-2.071.113-3.967,1.986-5.3,2.021-1.434,5.365-.887,6.53,1.163.2.358.082.9.111,1.356a8.708,8.708,0,0,1-1.642-.284c-.283-.1-.435-.526-.688-.758a2.357,2.357,0,0,0-3.4.173,4.32,4.32,0,0,0,.338,5.879,2.255,2.255,0,0,0,3.429-.612c.484-.819.954-1.408,2.03-1.275.62.077.686-.459.775-.964a15.235,15.235,0,0,1,.669-2.9,4.024,4.024,0,0,1,3.875-2.548,4.627,4.627,0,0,1,4.388,2.114c1.314,2.007,1.009,5.678-.917,7.3-1.794,1.512-6.445,1.456-7.433-1.574A6.17,6.17,0,0,0,436.738,53.923Zm2.143-1.186a5.693,5.693,0,0,0,.153,1.109,2.846,2.846,0,0,0,2.043,2.145,2.628,2.628,0,0,0,2.855-1.018,4.971,4.971,0,0,0-.153-5.1A2.48,2.48,0,0,0,440.4,49.3C439.135,50.029,438.892,51.223,438.882,52.737Z" transform="translate(-239.813 -26.505)" fill="#35470b"/>
    <path id="Path_3942" data-name="Path 3942" d="M303.039,58.1c0-2.3-.008-4.608.005-6.911.007-1.156.164-1.291,1.338-1.293.474,0,.95.032,1.421,0,.914-.071,1.238.377,1.263,1.234a3.137,3.137,0,0,0,.361.952,5.068,5.068,0,0,0,.862-.616,5.123,5.123,0,0,1,3.864-1.9c.723,0,1.144.28,1.137,1.052-.006.663-.008,1.326,0,1.988s-.33.888-.948.882a7.039,7.039,0,0,0-1.508.089,4.034,4.034,0,0,0-3.439,3.958c-.112,2.3-.1,4.6-.117,6.907-.016,1.8,0,1.8-1.757,1.79h-.095c-2.68-.035-2.374.373-2.392-2.45C303.028,61.884,303.038,59.99,303.039,58.1Z" transform="translate(-170.027 -27.809)" fill="#35470b"/>
    <path id="Path_3943" data-name="Path 3943" d="M417.229,80.138c-5.147,0-10.294-.012-15.442.01-.852,0-1.3-.263-1.334-1.168-.042-1.189.11-1.39,1.3-1.39q15.489,0,30.978,0a1.323,1.323,0,0,1,1.191,2.131,1.751,1.751,0,0,1-1.256.4C427.523,80.149,422.376,80.139,417.229,80.138Z" transform="translate(-224.684 -43.534)" fill="#35470b"/>
    <path id="Path_3944" data-name="Path 3944" d="M404.544,47.645a2.315,2.315,0,0,1,2.383,1.514,2.264,2.264,0,0,1-.688,2.565c-.132.134-.359.287-.353.423a3.065,3.065,0,0,0,.245,1.33c.077.138.7.006,1.058-.056s.726-.19,1.088-.29c.036.413.259.961.075,1.217-.74,1.031-.185,1.674.494,2.367a2.2,2.2,0,0,1,.306.719,4.2,4.2,0,0,1-.753.27.873.873,0,0,1-.641-.078c-.945-.89-1.8-.357-2.744.037a3.252,3.252,0,0,1-3.659-.759,2.687,2.687,0,0,1-.405-3.084,2.979,2.979,0,0,1,.819-1.015,1.284,1.284,0,0,0,.452-1.8,1.39,1.39,0,0,1-.092-.268A2.248,2.248,0,0,1,404.544,47.645Zm-.691,8.853c.816.013,1.8-.681,1.542-1.15a6.193,6.193,0,0,0-1.735-1.954c-.369-.267-1.376.872-1.4,1.52a1.787,1.787,0,0,0,1.6,1.585Zm2.1-6.581c-.636-.524-1.021-1.085-1.416-1.092-.322-.005-.961.7-.913,1,.074.473.612.874.953,1.305Z" transform="translate(-224.791 -26.728)" fill="#35470b"/>
    <path id="Path_3945" data-name="Path 3945" d="M472.78,66.689c-.019-.464.227-.8.942-.78.766.017.948.419.946,1.08,0,.743-.407.989-1.073.982C472.836,67.962,472.773,67.443,472.78,66.689Z" transform="translate(-265.268 -36.98)" fill="#35470b"/>
  </g>
</svg>
