<svg xmlns="http://www.w3.org/2000/svg" width="19.784" height="19.739" viewBox="0 0 19.784 19.739">
  <g id="Group_1064" data-name="Group 1064" opacity="0.339">
    <g id="Group_1063" data-name="Group 1063" transform="translate(0 0)">
      <path id="Path_117" data-name="Path 117" d="M19.34,16.006l-3.055-3.056a1.593,1.593,0,0,0-2.246.042L12.5,14.532l-.3-.169a15.318,15.318,0,0,1-3.7-2.678A15.4,15.4,0,0,1,5.81,7.976c-.057-.1-.112-.2-.166-.3L6.677,6.648l.508-.509a1.592,1.592,0,0,0,.041-2.246L4.171.837A1.591,1.591,0,0,0,1.925.879l-.861.866.024.023A4.979,4.979,0,0,0,.378,3.02,5.189,5.189,0,0,0,.062,4.29c-.4,3.345,1.125,6.4,5.273,10.549,5.734,5.733,10.354,5.3,10.553,5.279a5.162,5.162,0,0,0,1.273-.32,4.963,4.963,0,0,0,1.247-.706l.019.017.872-.854A1.6,1.6,0,0,0,19.34,16.006Z" transform="translate(0 -0.394)" fill="#fff"/>
    </g>
  </g>
</svg>
