<svg xmlns="http://www.w3.org/2000/svg" width="23.776" height="19.313" viewBox="0 0 23.776 19.313">
  <path id="Path_12498" data-name="Path 12498" d="M1038.615,510.586a9.749,9.749,0,0,1-2.8.771,4.912,4.912,0,0,0,2.147-2.7,9.725,9.725,0,0,1-3.106,1.183,4.876,4.876,0,0,0-8.43,3.338,5.073,5.073,0,0,0,.124,1.111,13.847,13.847,0,0,1-10.056-5.095A4.877,4.877,0,0,0,1018,515.7a4.8,4.8,0,0,1-2.2-.609v.059a4.89,4.89,0,0,0,3.91,4.788,5.033,5.033,0,0,1-1.283.165,4.917,4.917,0,0,1-.921-.085,4.894,4.894,0,0,0,4.556,3.388,9.8,9.8,0,0,1-6.059,2.082,10.454,10.454,0,0,1-1.161-.065,13.872,13.872,0,0,0,21.352-11.681l-.015-.631a9.829,9.829,0,0,0,2.438-2.526Zm0,0" transform="translate(-1014.839 -508.301)" fill="#fff"/>
</svg>
